# xmcd
#
# Track frame offsets: 
#        150
#        11283
#        25129
#        42698
#        56884
#
# Disc length: 996 seconds
#
# Revision: 0
# Processed by: cddbd v1.5.2PL0 Copyright (c) Steve Scherf et al.
# Submitted via: ExactAudioCopy v0.99pb3
#
DISCID=3b03e205
DTITLE=Qwill - Arrows
DYEAR=2008
DGENRE=Soul
TTITLE0=Funeral Song
TTITLE1=Laugh
TTITLE2=Find Your Way
TTITLE3=Waiting On Miracles
TTITLE4=Arrows
EXTD=
EXTT0=
EXTT1=
EXTT2=
EXTT3=
EXTT4=
PLAYORDER=
